<svg width="28" height="28" viewBox="0 0 28 28" fill="none" xmlns="http://www.w3.org/2000/svg">
<g id="twemoji:flag-peru" clip-path="url(#clip0_659_82)">
<path id="Vector" d="M3.5 4.25C2.70435 4.25 1.94129 4.56607 1.37868 5.12868C0.816071 5.69129 0.5 6.45435 0.5 7.25L0.5 20.75C0.5 21.5456 0.816071 22.3087 1.37868 22.8713C1.94129 23.4339 2.70435 23.75 3.5 23.75H9.5V4.25H3.5Z" fill="#D91023"/>
<path id="Vector_2" d="M9.5 4.25H18.5V23.75H9.5V4.25Z" fill="#EEEEEE"/>
<path id="Vector_3" d="M24.5 4.25H18.5V23.75H24.5C25.2956 23.75 26.0587 23.4339 26.6213 22.8713C27.1839 22.3087 27.5 21.5456 27.5 20.75V7.25C27.5 6.45435 27.1839 5.69129 26.6213 5.12868C26.0587 4.56607 25.2956 4.25 24.5 4.25Z" fill="#D91023"/>
</g>
<defs>
<clipPath id="clip0_659_82">
<rect width="27" height="27" fill="white" transform="translate(0.5 0.5)"/>
</clipPath>
</defs>
</svg>
