<svg width="14" height="13" viewBox="0 0 14 13" fill="none" xmlns="http://www.w3.org/2000/svg">
<path d="M7.00035 12.125C6.79963 12.1248 6.60363 12.0679 6.43785 11.9618C3.98191 10.3988 2.91847 9.32715 2.33191 8.65713C1.08191 7.22891 0.483472 5.7626 0.500347 4.17471C0.520035 2.35508 2.07722 0.875 3.9716 0.875C5.3491 0.875 6.30316 1.60244 6.85878 2.2083C6.87639 2.2273 6.89813 2.24253 6.92255 2.25297C6.94698 2.26341 6.97351 2.26882 7.00035 2.26882C7.02719 2.26882 7.05372 2.26341 7.07814 2.25297C7.10256 2.24253 7.12431 2.2273 7.14191 2.2083C7.69753 1.60186 8.6516 0.875 10.0291 0.875C11.9235 0.875 13.4807 2.35508 13.5003 4.175C13.5172 5.76318 12.9182 7.22949 11.6688 8.65742C11.0822 9.32744 10.0188 10.3991 7.56285 11.9621C7.39703 12.0681 7.20103 12.1248 7.00035 12.125Z" fill="#33A6D1"/>
</svg>
