<svg width="12" height="7" viewBox="0 0 12 7" fill="none" xmlns="http://www.w3.org/2000/svg">
<path d="M1.15073 0.575921C1.09504 0.523293 1.02953 0.482151 0.957937 0.454842C0.886346 0.427533 0.810076 0.414592 0.733483 0.416759C0.65689 0.418925 0.581474 0.436157 0.511541 0.46747C0.441607 0.498782 0.378526 0.543562 0.325899 0.599254C0.273272 0.654945 0.232129 0.720458 0.20482 0.792049C0.177511 0.863641 0.16457 0.93991 0.166737 1.0165C0.168904 1.0931 0.186135 1.16851 0.217448 1.23845C0.24876 1.30838 0.293541 1.37146 0.349232 1.42409L5.59923 6.38242C5.70754 6.48482 5.85093 6.54187 5.99998 6.54187C6.14903 6.54187 6.29243 6.48482 6.40073 6.38242L11.6513 1.42409C11.7082 1.37181 11.7542 1.30874 11.7865 1.23855C11.8188 1.16836 11.8369 1.09244 11.8397 1.01521C11.8424 0.937983 11.8298 0.860978 11.8025 0.78867C11.7752 0.716361 11.7339 0.650192 11.6808 0.594005C11.6278 0.537818 11.5641 0.492733 11.4934 0.461369C11.4228 0.430006 11.3466 0.412989 11.2694 0.411306C11.1921 0.409624 11.1153 0.423309 11.0434 0.451568C10.9714 0.479827 10.9059 0.522096 10.8504 0.57592L5.99998 5.15625L1.15073 0.575921Z" fill="#3E3E3E"/>
</svg>
