<svg width="18" height="15" viewBox="0 0 18 15" fill="none" xmlns="http://www.w3.org/2000/svg">
<path d="M3.375 0.583336H14.75C15.4462 0.583336 16.1139 0.873067 16.6062 1.38879C17.0984 1.90452 17.375 2.60399 17.375 3.33334V11.5833C17.375 12.3127 17.0984 13.0122 16.6062 13.5279C16.1139 14.0436 15.4462 14.3333 14.75 14.3333H3.375C2.67881 14.3333 2.01113 14.0436 1.51884 13.5279C1.02656 13.0122 0.75 12.3127 0.75 11.5833V3.33334C0.75 2.60399 1.02656 1.90452 1.51884 1.38879C2.01113 0.873067 2.67881 0.583336 3.375 0.583336ZM3.375 1.5C2.9375 1.5 2.5525 1.65584 2.255 1.93084L9.0625 6.54167L15.87 1.93084C15.5725 1.65584 15.1875 1.5 14.75 1.5H3.375ZM9.0625 7.65084L1.73875 2.67334C1.66875 2.875 1.625 3.10417 1.625 3.33334V11.5833C1.625 12.0696 1.80937 12.5359 2.13756 12.8797C2.46575 13.2235 2.91087 13.4167 3.375 13.4167H14.75C15.2141 13.4167 15.6592 13.2235 15.9874 12.8797C16.3156 12.5359 16.5 12.0696 16.5 11.5833V3.33334C16.5 3.10417 16.4563 2.875 16.3863 2.67334L9.0625 7.65084Z" fill="#3E3E3E"/>
</svg>
