<svg width="16" height="17" viewBox="0 0 16 17" fill="none" xmlns="http://www.w3.org/2000/svg">
<path id="Vector" d="M15.3986 11.6774L11.4635 9.91658C11.311 9.85056 11.1444 9.82361 10.9788 9.83816C10.8132 9.85271 10.6538 9.90831 10.5152 9.99992C10.5041 10.0069 10.4935 10.0147 10.4835 10.0233L8.41679 11.7849C8.3708 11.813 8.3186 11.8293 8.26481 11.8323C8.21103 11.8354 8.15732 11.8251 8.10845 11.8024C6.7551 11.1491 5.35425 9.75908 4.70091 8.42157C4.6778 8.37306 4.66707 8.31959 4.66969 8.26593C4.6723 8.21226 4.68818 8.16009 4.71591 8.11406L6.4826 6.01321C6.49093 6.00321 6.49843 5.99237 6.50593 5.98154C6.59726 5.84304 6.65269 5.68399 6.66724 5.51873C6.68179 5.35347 6.65499 5.18719 6.58927 5.03486L4.82508 1.10648C4.73991 0.90752 4.59249 0.741557 4.40496 0.633517C4.21743 0.525477 3.99991 0.481191 3.78506 0.507311C2.73635 0.645579 1.77384 1.16087 1.0773 1.95694C0.380755 2.75301 -0.00218332 3.77542 9.36447e-06 4.83319C9.36447e-06 11.2666 5.23341 16.5 11.6668 16.5C12.7246 16.5022 13.747 16.1192 14.5431 15.4227C15.3392 14.7262 15.8545 13.7637 15.9927 12.7149C16.0187 12.5011 15.9748 12.2846 15.8678 12.0976C15.7607 11.9107 15.5961 11.7633 15.3986 11.6774ZM15.3336 12.6316C15.2159 13.5197 14.7788 14.3346 14.1039 14.9239C13.4291 15.5131 12.5627 15.8364 11.6668 15.8333C5.60175 15.8333 0.666685 10.8983 0.666685 4.83319C0.663582 3.9373 0.98688 3.07095 1.57614 2.39612C2.16539 1.72128 2.98026 1.28416 3.8684 1.16648C3.88172 1.16566 3.89508 1.16566 3.9084 1.16648C3.97416 1.16705 4.03828 1.18705 4.09271 1.22397C4.14713 1.26089 4.18941 1.31309 4.21423 1.37399L5.97342 5.30236C5.99395 5.35038 6.00291 5.40254 5.99958 5.45465C5.99625 5.50676 5.98073 5.55736 5.95426 5.60237L4.1884 7.70239C4.18007 7.71323 4.17173 7.72323 4.16423 7.73489C4.07016 7.87876 4.01475 8.04444 4.00336 8.21596C3.99198 8.38748 4.025 8.55903 4.09923 8.71407C4.82341 10.1966 6.31676 11.6791 7.81595 12.4033C7.97205 12.477 8.14458 12.5091 8.31676 12.4964C8.48893 12.4837 8.65488 12.4266 8.79846 12.3308L8.8293 12.3074L10.8985 10.5474C10.9428 10.5204 10.9928 10.5042 11.0445 10.5003C11.0963 10.4964 11.1482 10.5048 11.196 10.5249L15.1302 12.2883C15.1966 12.3159 15.2523 12.3643 15.2889 12.4262C15.3256 12.488 15.3412 12.5601 15.3336 12.6316Z" fill="#FBFBFB"/>
</svg>
