<svg width="24" height="25" viewBox="0 0 24 25" fill="none" xmlns="http://www.w3.org/2000/svg">
<path d="M17.9908 2.09601C16.982 1.989 15.9682 1.93692 14.9538 1.94001C11.5908 1.94001 9.50078 4.08201 9.50078 7.53001V9.87101H6.67578C6.54317 9.87101 6.416 9.92369 6.32223 10.0175C6.22846 10.1112 6.17578 10.2384 6.17578 10.371V14.221C6.17578 14.3536 6.22846 14.4808 6.32223 14.5746C6.416 14.6683 6.54317 14.721 6.67578 14.721H9.50078V22.441C9.50078 22.5736 9.55346 22.7008 9.64723 22.7946C9.741 22.8883 9.86817 22.941 10.0008 22.941H13.9788C14.1114 22.941 14.2386 22.8883 14.3323 22.7946C14.4261 22.7008 14.4788 22.5736 14.4788 22.441V14.721H17.2948C17.4162 14.7211 17.5334 14.677 17.6247 14.5969C17.716 14.5169 17.775 14.4064 17.7908 14.286L18.2878 10.436C18.297 10.3654 18.2911 10.2937 18.2704 10.2256C18.2497 10.1575 18.2147 10.0946 18.1678 10.0411C18.1208 9.98766 18.063 9.94482 17.9982 9.91548C17.9333 9.88614 17.863 9.87098 17.7918 9.87101H14.4788V7.91201C14.4788 6.94201 14.6738 6.53701 15.8868 6.53701H17.9258C18.0584 6.53701 18.1856 6.48433 18.2793 6.39056C18.3731 6.2968 18.4258 6.16962 18.4258 6.03701V2.59201C18.4258 2.47062 18.3817 2.35335 18.3017 2.26209C18.2217 2.17082 18.1111 2.11179 17.9908 2.09601ZM17.4258 5.53601L15.8858 5.53701C13.7288 5.53701 13.4788 6.89301 13.4788 7.91201V10.372C13.4788 10.5044 13.5313 10.6315 13.6249 10.7252C13.7184 10.8189 13.8453 10.8717 13.9778 10.872H17.2238L16.8548 13.722H13.9788C13.8462 13.722 13.719 13.7747 13.6252 13.8685C13.5315 13.9622 13.4788 14.0894 13.4788 14.222V21.94H10.5008V14.222C10.5008 14.0894 10.4481 13.9622 10.3543 13.8685C10.2606 13.7747 10.1334 13.722 10.0008 13.722H7.17678V10.872H10.0008C10.1334 10.872 10.2606 10.8193 10.3543 10.7256C10.4481 10.6318 10.5008 10.5046 10.5008 10.372V7.53001C10.5008 4.65601 12.1658 2.94001 14.9538 2.94001C15.9628 2.94001 16.8738 2.99501 17.4258 3.04301V5.53601Z" fill="white"/>
</svg>
