<svg width="10" height="10" viewBox="0 0 10 10" fill="none" xmlns="http://www.w3.org/2000/svg">
<g clip-path="url(#clip0_728_3903)">
<path d="M1.77849 3.84282C0.349922 5.85711 1.44278 8.16425 1.97135 9.06425C2.04886 9.19013 2.15295 9.29756 2.27634 9.37899C2.39972 9.46042 2.53941 9.5139 2.68564 9.53568C3.72135 9.71425 6.29992 9.91425 7.68564 7.89996C9.04992 5.99996 8.99278 2.65711 8.87135 1.06425C8.86656 0.945575 8.83366 0.829736 8.77535 0.726265C8.71704 0.622795 8.63499 0.534652 8.53595 0.469093C8.43691 0.403534 8.32372 0.362432 8.2057 0.349172C8.08767 0.335911 7.96818 0.350871 7.85706 0.39282C6.32135 0.835677 3.12135 1.94282 1.77849 3.84282Z" stroke="#1565C0" stroke-linecap="round" stroke-linejoin="round"/>
<path d="M6.59277 3.17859C4.95668 5.10664 3.52074 7.19594 2.30706 9.4143" stroke="#1565C0" stroke-linecap="round" stroke-linejoin="round"/>
</g>
<defs>
<clipPath id="clip0_728_3903">
<rect width="10" height="10" fill="white" transform="matrix(-1 0 0 1 10 0)"/>
</clipPath>
</defs>
</svg>
