<svg width="11" height="13" viewBox="0 0 11 13" fill="none" xmlns="http://www.w3.org/2000/svg">
<path fill-rule="evenodd" clip-rule="evenodd" d="M5.49995 12.2428L5.95066 11.7349C6.46209 11.1492 6.92209 10.5935 7.33138 10.0649L7.66923 9.61922C9.07995 7.7185 9.78566 6.20993 9.78566 5.09493C9.78566 2.71493 7.86709 0.785645 5.49995 0.785645C3.1328 0.785645 1.21423 2.71493 1.21423 5.09493C1.21423 6.20993 1.91995 7.7185 3.33066 9.61922L3.66852 10.0649C4.2524 10.8131 4.86328 11.539 5.49995 12.2428Z" stroke="#FBFBFB" stroke-linecap="round" stroke-linejoin="round"/>
<path d="M5.49995 6.85707C6.48617 6.85707 7.28566 6.05758 7.28566 5.07136C7.28566 4.08514 6.48617 3.28564 5.49995 3.28564C4.51372 3.28564 3.71423 4.08514 3.71423 5.07136C3.71423 6.05758 4.51372 6.85707 5.49995 6.85707Z" stroke="#FBFBFB" stroke-linecap="round" stroke-linejoin="round"/>
</svg>
