<svg width="18" height="15" viewBox="0 0 18 15" fill="none" xmlns="http://www.w3.org/2000/svg">
<path id="Vector" d="M1.615 14.5C1.155 14.5 0.771 14.346 0.463 14.038C0.154333 13.7293 0 13.345 0 12.885V2.115C0 1.655 0.154333 1.271 0.463 0.963C0.771 0.654333 1.155 0.5 1.615 0.5H16.385C16.845 0.5 17.229 0.654333 17.537 0.963C17.8457 1.271 18 1.655 18 2.115V12.885C18 13.345 17.846 13.729 17.538 14.037C17.2293 14.3457 16.845 14.5 16.385 14.5H1.615ZM9 7.615L1 2.385V12.885C1 13.0643 1.05767 13.2117 1.173 13.327C1.28833 13.4423 1.43567 13.5 1.615 13.5H16.385C16.5643 13.5 16.7117 13.4423 16.827 13.327C16.9423 13.2117 17 13.0643 17 12.885V2.385L9 7.615ZM9 6.5L16.692 1.5H1.308L9 6.5ZM1 2.385V1.5V12.885C1 13.0643 1.05767 13.2117 1.173 13.327C1.28833 13.4423 1.43567 13.5 1.615 13.5H1V2.385Z" fill="white"/>
</svg>
