<svg width="50" height="50" viewBox="0 0 50 50" fill="none" xmlns="http://www.w3.org/2000/svg">
<circle cx="25" cy="25" r="25" fill="#33A6D1"/>
<path d="M19.5189 17.4167C19.5186 17.9913 19.29 18.5423 18.8835 18.9484C18.477 19.3546 17.9258 19.5826 17.3511 19.5823C16.7765 19.582 16.2255 19.3534 15.8194 18.9469C15.4133 18.5404 15.1853 17.9892 15.1855 17.4145C15.1858 16.8399 15.4144 16.2889 15.8209 15.8828C16.2274 15.4767 16.7787 15.2487 17.3533 15.2489C17.9279 15.2492 18.4789 15.4778 18.885 15.8843C19.2912 16.2908 19.5192 16.8421 19.5189 17.4167ZM19.5839 21.1867H15.2505V34.75H19.5839V21.1867ZM26.4305 21.1867H22.1189V34.75H26.3872V27.6325C26.3872 23.6675 31.5547 23.2992 31.5547 27.6325V34.75H35.8339V26.1592C35.8339 19.475 28.1855 19.7242 26.3872 23.0067L26.4305 21.1867Z" fill="#FBFBFB"/>
</svg>
