<svg width="10" height="10" viewBox="0 0 10 10" fill="none" xmlns="http://www.w3.org/2000/svg">
<g clip-path="url(#clip0_718_877)">
<path d="M1.77862 3.84282C0.350044 5.85711 1.4429 8.16425 1.97147 9.06425C2.04898 9.19013 2.15307 9.29756 2.27646 9.37899C2.39984 9.46042 2.53954 9.5139 2.68576 9.53568C3.72147 9.71425 6.30004 9.91425 7.68576 7.89996C9.05004 5.99996 8.9929 2.65711 8.87147 1.06425C8.86668 0.945575 8.83378 0.829736 8.77547 0.726265C8.71716 0.622795 8.63511 0.534652 8.53607 0.469093C8.43704 0.403534 8.32384 0.362432 8.20582 0.349172C8.08779 0.335911 7.9683 0.350871 7.85719 0.39282C6.32147 0.835677 3.12147 1.94282 1.77862 3.84282Z" stroke="#FBFBFB" stroke-linecap="round" stroke-linejoin="round"/>
<path d="M6.5929 3.17847C4.95681 5.10651 3.52086 7.19582 2.30718 9.41418" stroke="#FBFBFB" stroke-linecap="round" stroke-linejoin="round"/>
</g>
<defs>
<clipPath id="clip0_718_877">
<rect width="10" height="10" fill="white" transform="matrix(-1 0 0 1 10 0)"/>
</clipPath>
</defs>
</svg>
