<svg width="67" height="16" viewBox="0 0 67 16" fill="none" xmlns="http://www.w3.org/2000/svg">
<path d="M10.3483 8.18598H10.2427L7.05726 1.14983C6.96927 0.929378 6.75808 0.800781 6.52929 0.800781H0.58077C0.263985 0.800781 0 1.07635 0 1.40703V14.6159C0 14.9466 0.263985 15.2221 0.58077 15.2221H4.85737C5.17415 15.2221 5.43815 14.9466 5.43815 14.6159V7.78182H5.54374L8.95798 14.8915C9.06358 15.0935 9.25716 15.2221 9.46835 15.2221H15.2057C15.5225 15.2221 15.7865 14.9466 15.7865 14.6159V1.40703C15.7865 1.07635 15.5225 0.800781 15.2057 0.800781H10.9291C10.6123 0.800781 10.3483 1.07635 10.3483 1.40703V8.18598Z" fill="white" fill-opacity="0.6"/>
<path d="M23.4592 8.9024H31.0972C31.2908 8.9024 31.4316 8.73705 31.4316 8.55334V7.48781C31.4316 7.28573 31.2732 7.13876 31.0972 7.13876H23.4592V5.09957H31.4492C31.766 5.09957 32.03 4.824 32.03 4.49332V1.42534C32.03 1.09466 31.766 0.819092 31.4492 0.819092H18.1442C17.8275 0.819092 17.5635 1.09466 17.5635 1.42534V14.6526C17.5635 14.9832 17.8275 15.2404 18.1266 15.2404H31.5196C31.8364 15.2404 32.1004 14.9649 32.1004 14.6342V11.7499C32.1004 11.4192 31.8364 11.1437 31.5196 11.1437H23.4416V8.9024H23.4592Z" fill="white" fill-opacity="0.6"/>
<path d="M49.7005 6.51421C49.7005 1.49889 46.9551 0.800781 43.312 0.800781H34.4948C34.1781 0.800781 33.9141 1.07635 33.9141 1.40703V14.6159C33.9141 14.9466 34.1781 15.2221 34.4948 15.2221H39.229C39.5458 15.2221 39.8098 14.9466 39.8098 14.6159V12.0623H40.813C41.1297 13.6422 42.3441 14.8731 43.8928 15.1486C44.0688 15.1854 44.2624 15.2221 44.4736 15.2221H49.1373C49.4541 15.2221 49.7181 14.9466 49.7181 14.6159V12.0623C49.7181 11.7316 49.4541 11.456 49.1373 11.456H47.2366C48.8206 10.7763 49.7005 9.36174 49.7005 6.51421ZM39.7922 5.04452H42.4497C43.1008 5.04452 43.6464 5.57728 43.6992 6.25701C43.8224 7.83693 43.3472 8.36969 42.0449 8.40643H39.7922V5.04452Z" fill="white" fill-opacity="0.6"/>
<path d="M67 7.92879C67 2.69301 64.5713 0.800781 59.8723 0.800781H52.0759C51.7591 0.800781 51.4951 1.07635 51.4951 1.40703V14.5424C51.4951 14.9282 51.7943 15.2221 52.1463 15.2221H59.8723C64.5889 15.2221 67 13.3299 67 8.09412C67 8.05738 67 8.03901 67 8.02064C67 7.9839 67 7.96553 67 7.92879ZM58.8692 10.7947H57.2852V9.17802V5.22823H58.8692C60.6291 5.22823 61.0867 6.23864 61.1043 8.00227C61.0867 9.80264 60.6291 10.7947 58.8692 10.7947Z" fill="white" fill-opacity="0.6"/>
</svg>
