<svg width="21" height="21" viewBox="0 0 21 21" fill="none" xmlns="http://www.w3.org/2000/svg">
<path d="M19.2513 11.9554H11.9596V19.247C11.9596 19.6338 11.806 20.0047 11.5325 20.2782C11.259 20.5517 10.8881 20.7054 10.5013 20.7054C10.1145 20.7054 9.7436 20.5517 9.4701 20.2782C9.19661 20.0047 9.04297 19.6338 9.04297 19.247V11.9554H1.7513C1.36453 11.9554 0.993595 11.8017 0.720105 11.5282C0.446614 11.2547 0.292969 10.8838 0.292969 10.497C0.292969 10.1103 0.446614 9.73932 0.720105 9.46583C0.993595 9.19234 1.36453 9.0387 1.7513 9.0387H9.04297V1.74703C9.04297 1.36026 9.19661 0.989322 9.4701 0.715832C9.7436 0.442341 10.1145 0.288696 10.5013 0.288696C10.8881 0.288696 11.259 0.442341 11.5325 0.715832C11.806 0.989322 11.9596 1.36026 11.9596 1.74703V9.0387H19.2513C19.6381 9.0387 20.009 9.19234 20.2825 9.46583C20.556 9.73932 20.7096 10.1103 20.7096 10.497C20.7096 10.8838 20.556 11.2547 20.2825 11.5282C20.009 11.8017 19.6381 11.9554 19.2513 11.9554Z" fill="#33A6D1"/>
</svg>
