<svg width="16" height="16" viewBox="0 0 16 16" fill="none" xmlns="http://www.w3.org/2000/svg">
<path d="M14.4461 10.8973L10.94 9.32606C10.7812 9.25799 10.6079 9.23062 10.4358 9.24643C10.2637 9.26224 10.0982 9.32073 9.95442 9.4166C9.93983 9.42597 9.92594 9.43639 9.91286 9.44778L8.0804 11.0064C8.06139 11.0167 8.04022 11.0225 8.01858 11.0233C7.99694 11.0241 7.97542 11.0198 7.95571 11.0108C6.77786 10.4423 5.5577 9.22957 4.98696 8.06805C4.97746 8.04864 4.97252 8.02731 4.97252 8.0057C4.97252 7.98409 4.97746 7.96277 4.98696 7.94336L6.55075 6.08789C6.56197 6.07416 6.57238 6.05979 6.58192 6.04484C6.67647 5.90049 6.73358 5.73487 6.74809 5.56292C6.7626 5.39097 6.73406 5.21812 6.66505 5.05996L5.10497 1.55981C5.01637 1.35319 4.86316 1.18088 4.66831 1.06873C4.47347 0.956591 4.24751 0.910666 4.02434 0.937852C3.05447 1.06536 2.16421 1.54165 1.51992 2.27772C0.875637 3.0138 0.521413 3.95929 0.523446 4.9375C0.523446 10.7488 5.25118 15.4766 11.0625 15.4766C12.0407 15.4784 12.9861 15.1242 13.7221 14.4799C14.4582 13.8356 14.9345 12.9455 15.0622 11.9757C15.0893 11.7535 15.044 11.5286 14.933 11.3343C14.822 11.14 14.6513 10.9867 14.4461 10.8973ZM11.0625 14.5859C5.74251 14.5859 1.41407 10.2575 1.41407 4.9375C1.41159 4.17596 1.68646 3.43957 2.18732 2.86591C2.68817 2.29226 3.38076 1.92057 4.13567 1.82031H4.15274C4.18265 1.82087 4.21169 1.83045 4.23606 1.8478C4.26043 1.86515 4.27899 1.88946 4.28931 1.91754L5.85532 5.41399C5.86425 5.43342 5.86888 5.45456 5.86888 5.47596C5.86888 5.49735 5.86425 5.51849 5.85532 5.53793L4.28856 7.39785C4.27688 7.41113 4.26621 7.42527 4.25665 7.44016C4.15861 7.58982 4.10088 7.76227 4.08905 7.9408C4.07721 8.11933 4.11168 8.29788 4.18911 8.45918C4.84743 9.80699 6.20563 11.1548 7.56829 11.8131C7.73053 11.8901 7.90996 11.9238 8.08907 11.9108C8.26818 11.8977 8.44087 11.8385 8.59028 11.7389C8.60438 11.7293 8.61849 11.7189 8.63184 11.7077L10.4636 10.1491C10.4817 10.1394 10.5016 10.1337 10.5221 10.1324C10.5426 10.1312 10.5632 10.1343 10.5823 10.1417L14.0891 11.7129C14.1178 11.7251 14.1419 11.746 14.158 11.7727C14.1741 11.7993 14.1814 11.8303 14.179 11.8614C14.0792 12.6166 13.7079 13.3097 13.1344 13.8111C12.5608 14.3126 11.8243 14.588 11.0625 14.5859Z" fill="#33A6D1"/>
</svg>
