<svg width="13" height="18" viewBox="0 0 13 18" fill="none" xmlns="http://www.w3.org/2000/svg">
<path d="M6.49953 17.55L6.13153 17.136C5.90153 16.906 0.519531 10.558 0.519531 6.74C0.519531 3.428 3.18753 0.759998 6.49953 0.759998C9.81153 0.759998 12.4795 3.428 12.4795 6.74C12.4795 10.558 7.09753 16.906 6.86753 17.182L6.49953 17.55ZM6.49953 1.68C3.69353 1.68 1.43953 3.934 1.43953 6.74C1.43953 9.684 5.30353 14.652 6.49953 16.124C7.69553 14.652 11.5595 9.684 11.5595 6.74C11.5595 3.934 9.30553 1.68 6.49953 1.68Z" fill="#3E3E3E"/>
<path d="M6.49922 9.04C5.21122 9.04 4.19922 8.028 4.19922 6.74C4.19922 5.452 5.21122 4.44 6.49922 4.44C7.78722 4.44 8.79922 5.452 8.79922 6.74C8.79922 8.028 7.78722 9.04 6.49922 9.04ZM6.49922 5.36C5.71722 5.36 5.11922 5.958 5.11922 6.74C5.11922 7.522 5.71722 8.12 6.49922 8.12C7.28122 8.12 7.87922 7.522 7.87922 6.74C7.87922 5.958 7.28122 5.36 6.49922 5.36Z" fill="#3E3E3E"/>
</svg>
