<svg width="166" height="51" viewBox="0 0 166 51" fill="none" xmlns="http://www.w3.org/2000/svg">
<path d="M41.5914 50.6314L45.6132 50.6195C49.4875 50.5898 53.2792 49.6444 56.67 47.8668H41.5914V50.6314Z" fill="white"/>
<path d="M25.357 47.8727V50.6968L26.8784 50.6789L41.5914 50.6314V47.8727H25.357Z" fill="white"/>
<path d="M11.0568 42.9142C10.3905 42.5515 9.74768 42.0818 9.04594 41.4219C8.19088 40.6609 7.45965 39.7631 6.85816 38.7702H6.24487V45.2924H12.8023V43.7763C12.2303 43.5504 11.676 43.2828 11.1512 42.9618L11.0568 42.9083V42.9142Z" fill="white"/>
<path d="M6.581 38.3065C6.45716 38.0746 6.35692 37.8427 6.24487 37.6109V38.7702H6.85816C6.76381 38.6157 6.66946 38.467 6.581 38.3065Z" fill="white"/>
<path d="M4.99473 26.2848V25.72H0.0117798V26.3086C0.0176768 27.8901 0.0176768 30.1731 0.100235 32.2481H5.08318C4.99473 30.2088 4.99473 27.8009 4.99473 26.2848Z" fill="white"/>
<path d="M5.52544 35.8391C5.50775 35.7618 5.49006 35.6845 5.46647 35.6072C5.44288 35.5002 5.4134 35.3932 5.38391 35.2802C5.37212 35.2327 5.35443 35.1792 5.34264 35.1376L5.2188 34.3528C5.15393 33.7523 5.11265 33.021 5.07727 32.2421H0.10022C0.141499 33.3004 0.200468 34.3111 0.300717 35.1316L0.312511 35.2267C0.330202 35.5002 0.477627 36.1661 0.507111 36.2791L1.04374 38.1043C1.12629 38.3243 1.22065 38.5443 1.315 38.7643H6.25077V37.6049C5.97361 37.0223 5.72594 36.4337 5.53134 35.8332" fill="white"/>
<path d="M12.8024 43.7763V45.2924H17.1013V44.6206C15.6211 44.6087 14.1646 44.3173 12.8024 43.7704" fill="white"/>
<path d="M0.011794 25.72H4.98885L4.97705 24.5071L5.01243 19.2394L6.2449 19.2454V19.1978H0.0353819L0 24.519L0.011794 25.72Z" fill="white"/>
<path d="M5.87927 45.2983C6.00311 45.4113 6.12105 45.5183 6.24489 45.6194V45.2983H5.87927Z" fill="white"/>
<path d="M12.8023 49.0558C14.1881 49.4304 15.6211 49.6325 17.0659 49.6385L17.0953 45.2924H12.7964V49.0558H12.8023Z" fill="white"/>
<path d="M12.8023 19.1978V14.2869L4.98883 14.2274V19.1978H12.8023Z" fill="white"/>
<path d="M6.24492 38.7702H1.30914C1.57451 39.4302 1.86936 40.0782 2.21728 40.7144C3.1431 42.4148 4.33429 43.919 5.70829 45.1378C5.76726 45.1913 5.82623 45.2389 5.8793 45.2924H6.24492V38.7702Z" fill="white"/>
<path d="M6.24487 19.1978V19.2454L12.8023 19.3048V19.1978H6.24487Z" fill="white"/>
<path d="M17.3312 19.1978L17.3666 14.3226L12.8024 14.2869V19.1978H17.3312Z" fill="white"/>
<path d="M6.24491 45.2983V45.6194C7.02331 46.2912 7.81351 46.8501 8.64498 47.3079C9.94232 48.0808 11.3458 48.6694 12.7965 49.0618V45.2983H6.23901H6.24491Z" fill="white"/>
<path d="M12.8024 19.3048L17.3254 19.3405L17.3312 19.1978H12.8024V19.3048Z" fill="white"/>
<path d="M34.5209 38.4492C34.9219 38.2351 35.3052 37.9497 35.7239 37.5573C36.2369 37.0995 36.6733 36.5645 37.033 35.9699H37.3986V39.882H33.4713V38.9724C33.8133 38.8356 34.1435 38.6751 34.4619 38.4848L34.515 38.4551L34.5209 38.4492Z" fill="white"/>
<path d="M37.2041 35.6905C37.2807 35.5537 37.3397 35.411 37.4046 35.2743V35.9699H37.0389C37.092 35.8748 37.151 35.7856 37.2041 35.6905Z" fill="white"/>
<path d="M38.1535 28.4846V28.1457H41.1373V28.4965C41.1373 29.4478 41.1373 30.8152 41.0843 32.0519H38.1004C38.1535 30.8271 38.1535 29.3883 38.1535 28.4787" fill="white"/>
<path d="M37.835 34.2101C37.8468 34.1625 37.8586 34.1149 37.8704 34.0674C37.8881 34.002 37.8999 33.9366 37.9176 33.8712C37.9235 33.8414 37.9352 33.8117 37.9411 33.7879L38.0178 33.3182C38.0532 32.9556 38.0827 32.5215 38.1004 32.0578H41.0842C40.9899 34.537 40.412 35.8332 40.3589 35.9699H37.3986V35.2743C37.5637 34.9235 37.7171 34.5727 37.8291 34.2101" fill="white"/>
<path d="M33.4771 38.9664V39.8761H30.9001V39.4777C31.7847 39.4718 32.6633 39.2934 33.4771 38.9724" fill="white"/>
<path d="M41.1373 28.1457H38.1594L38.1653 27.4204L38.1417 24.2633L37.4045 24.2693V24.2396H41.1255L41.1491 27.4263L41.1373 28.1457Z" fill="white"/>
<path d="M37.6227 39.8761C37.552 39.9415 37.4753 40.0069 37.4045 40.0723V39.8761H37.6227Z" fill="white"/>
<path d="M41.1079 21.2312L38.1004 21.2609V24.2633H41.1256L41.1079 21.2312Z" fill="white"/>
<path d="M33.4771 42.1294C32.6457 42.3553 31.7906 42.4743 30.9178 42.4802L30.9001 39.8761H33.4771V42.1294Z" fill="white"/>
<path d="M37.4045 35.964H40.3648C40.2056 36.3564 40.0287 36.7488 39.8223 37.1293C39.268 38.1519 38.5545 39.0497 37.7289 39.781C37.6935 39.8107 37.6581 39.8404 37.6227 39.8701H37.4045V35.958V35.964Z" fill="white"/>
<path d="M33.4772 21.2966V24.2396V24.299L38.1004 24.2693V24.2396V21.2609L33.4772 21.2966Z" fill="white"/>
<path d="M37.4046 39.8761V40.0723C36.9387 40.4706 36.4669 40.8095 35.9657 41.083C35.1873 41.5468 34.3499 41.8976 33.4772 42.1354V39.882H37.4046V39.8761Z" fill="white"/>
<path d="M30.741 21.3144L30.7646 24.2396V24.3228L33.4772 24.299V24.2396V21.2966L30.741 21.3144Z" fill="white"/>
<path d="M25.9998 19.2751C26.0882 18.8589 26.2003 18.3892 26.3359 18.0147L26.389 17.8542C26.672 16.8791 27.1556 15.803 27.8927 14.4831L28.1345 14.1204C28.3704 13.7102 28.6298 13.3118 28.8952 12.9194H25.5575V20.9755C25.6577 20.4999 25.7875 19.9886 25.9526 19.4654L25.9998 19.2751Z" fill="white"/>
<path d="M25.5575 45.6788L25.357 45.6848L25.2921 36.2196H20.3328L20.3799 42.5753L20.4212 47.8489V47.8727H25.5575V45.6788Z" fill="white"/>
<path d="M25.5575 9.03113C24.9973 9.76836 24.4666 10.5234 23.9948 11.3261L23.7412 11.7006C23.4995 12.1228 23.2754 12.533 23.0749 12.9254H25.5575V9.03113Z" fill="white"/>
<path d="M25.2214 24.6617C25.2214 24.6617 25.2214 24.6022 25.2214 24.5725H20.2385L20.3269 36.2256H25.2922L25.2155 24.6676L25.2214 24.6617Z" fill="white"/>
<path d="M25.2332 24.3287C25.245 24.0612 25.2568 23.7639 25.2863 23.5856L25.3334 23.3121L25.3216 23.0326C25.298 22.5035 25.3806 21.79 25.5516 20.9755V12.9194H23.069C22.4203 14.168 21.9545 15.2917 21.636 16.3618C21.4296 16.9504 21.2763 17.5569 21.1584 18.092C20.7574 19.4237 20.3151 21.3025 20.3387 23.0029C20.2856 23.4012 20.2679 23.7877 20.2561 24.1147L20.2325 24.5309V24.5725H25.2155C25.2155 24.4952 25.2214 24.412 25.2273 24.3287" fill="white"/>
<path d="M57.6253 41.3625C56.9118 41.9332 56.1923 42.4207 55.4552 42.825L55.3609 42.8785C52.4242 44.6384 49.0393 45.5837 45.5837 45.6075L41.5855 45.6194V47.8727H56.6641C56.9884 47.7062 57.301 47.5279 57.6194 47.3436V41.3565L57.6253 41.3625Z" fill="white"/>
<path d="M70.4394 12.9194H65.4506L65.3798 4.25693H70.3687L70.4394 12.9194Z" fill="white"/>
<path d="M65.4565 13.4189L65.427 16.2251C65.427 18.4725 65.427 21.6771 65.3267 24.5725H70.3038C70.404 21.6236 70.404 18.4725 70.404 16.2489L70.4335 13.4248V12.9254H65.4506V13.4189H65.4565Z" fill="white"/>
<path d="M65.0614 28.7997L64.9199 29.6559L64.9022 29.7985C64.8904 29.8996 64.8314 30.1196 64.7843 30.298C64.7489 30.4347 64.7135 30.5774 64.6781 30.7082C64.6191 30.8687 64.5779 31.0352 64.5484 31.2017C64.1061 32.581 63.5459 33.9009 62.8324 35.2208C62.6495 35.5597 62.4431 35.8867 62.2368 36.2137H67.9097C68.3578 35.2624 68.7588 34.2933 69.0949 33.3182L69.4547 32.1827L69.6257 31.6238L69.5962 31.5406C69.6669 31.279 69.7436 30.9698 69.8026 30.625C69.8674 30.405 69.9382 30.1077 69.95 29.7629L69.9736 29.5726C70.1387 28.1695 70.239 26.4096 70.2979 24.5606H65.3209C65.2678 26.1302 65.1852 27.6047 65.0555 28.7878" fill="white"/>
<path d="M33.7307 2.09875C33.9961 1.95606 34.4443 1.75986 34.8276 1.59338V7.21183C32.4747 8.67441 30.4402 10.6245 28.8952 12.9254H25.5516V9.03113C26.8136 7.37235 28.2642 5.88005 29.8918 4.59583C29.8918 4.59583 29.9213 4.5661 29.9803 4.51854H29.9862C29.9862 4.51854 30.0333 4.48287 30.0628 4.45909C31.0653 3.68023 32.1209 2.97867 33.2354 2.36035C33.4005 2.27711 33.5597 2.18793 33.7307 2.09875Z" fill="white"/>
<path d="M35.4585 1.33179C35.3524 1.37935 35.2521 1.41502 35.146 1.45664C35.2698 1.40313 35.3819 1.36151 35.4585 1.33179Z" fill="white"/>
<path d="M58.728 40.4112C58.3565 40.756 57.9909 41.0652 57.6253 41.3624V47.3495C57.702 47.3019 57.7845 47.2663 57.8612 47.2187C59.3413 46.4101 60.733 45.3875 62.0657 44.133C64.1297 42.3018 65.8575 40.1199 67.2079 37.6406C67.4615 37.1769 67.6915 36.7012 67.9214 36.2256H62.2485C61.2814 37.7773 60.1197 39.1805 58.7339 40.4112" fill="white"/>
<path d="M0.0648853 14.1799L0.0412974 18.4606H0.0354004V19.2454H4.98886V19.1978V18.4606V14.2274L0.0648853 14.1799Z" fill="white"/>
<path d="M70.3687 0V4.25099H52.8959V0.0416181C59.2706 0.0237818 65.3798 0 65.3798 0H70.3687Z" fill="white"/>
<path d="M42.4465 3.37849e-06C39.8459 -0.0297238 37.5107 0.529148 35.5883 1.27827C35.5411 1.29611 35.4999 1.31395 35.4645 1.33178C35.3583 1.37935 35.2581 1.41502 35.1519 1.45664C35.0399 1.5042 34.9396 1.54582 34.8335 1.59338V7.21182C35.8773 6.56377 36.9918 6.01085 38.1535 5.55899L38.242 5.52332C39.0911 5.1547 40.2292 4.85148 41.5914 4.59583C41.8804 4.54232 42.1693 4.48881 42.4701 4.44719H42.4878L52.8959 4.25099V0.0475669C49.0865 0.0475669 45.1886 0.0416215 42.4524 3.37849e-06" fill="white"/>
<path d="M26.843 45.661L25.357 45.6788V47.8727H41.5914V45.6194L29.6736 45.661H26.843Z" fill="white"/>
<path d="M76.6666 37.9617C76.6666 46.6123 79.7743 50.9346 85.9839 50.9346C89.0444 50.8454 92.0224 50.5779 94.9178 50.132V46.2377C91.928 46.5885 88.9854 46.7847 86.0841 46.8323C82.9764 46.8323 81.4255 43.8774 81.4255 37.9617C81.4255 32.0459 82.9764 29.0911 86.0841 29.0911C88.9795 29.1148 91.9398 29.2991 94.9532 29.6559V25.6903C92.0342 25.2681 89.0444 25.0125 85.9839 24.9174C79.7684 24.9174 76.6666 29.2635 76.6666 37.9557V37.9617Z" fill="white"/>
<path d="M110.256 24.953H107.266C106.034 24.953 105.202 25.6308 104.76 26.9864L96.8697 51H101.634L103.757 45.0724H113.806L115.893 51H120.658L112.762 26.9864C112.32 25.6308 111.488 24.953 110.256 24.953ZM105.108 40.869L108.587 30.3515H109.035L112.444 40.869H105.108Z" fill="white"/>
<path d="M127.369 46.529C126.573 45.9048 126.166 45.2805 126.166 44.686V25.5535H121.472V43.9131C121.472 44.9059 121.566 45.768 121.784 46.6004C122.185 47.6765 122.923 48.5862 123.978 49.3056C125.446 50.2985 127.257 50.8454 129.386 50.9287H139.788V47.0879H130.194C128.442 47.0879 127.693 46.7847 127.369 46.529Z" fill="white"/>
<path d="M158.104 26.9864C157.662 25.6308 156.83 24.953 155.598 24.953H152.608C151.381 24.953 150.544 25.6308 150.102 26.9864L142.212 51H146.976L149.099 45.0724H159.148L161.235 51H166L158.104 26.9864ZM150.456 40.869L153.935 30.3515H154.389L157.797 40.869H150.461H150.456Z" fill="white"/>
</svg>
