<svg width="17" height="17" viewBox="0 0 17 17" fill="none" xmlns="http://www.w3.org/2000/svg">
<path d="M7.34088 2.125C6.30928 2.125 5.30084 2.43091 4.44309 3.00403C3.58535 3.57716 2.91682 4.39177 2.52204 5.34485C2.12726 6.29793 2.02397 7.34666 2.22522 8.35845C2.42648 9.37023 2.92324 10.2996 3.6527 11.0291C4.38215 11.7585 5.31153 12.2553 6.32331 12.4565C7.3351 12.6578 8.38383 12.5545 9.33691 12.1597C10.29 11.7649 11.1046 11.0964 11.6777 10.2387C12.2509 9.38092 12.5568 8.37248 12.5568 7.34088C12.5567 5.95757 12.0071 4.63094 11.029 3.65279C10.0508 2.67464 8.72419 2.12509 7.34088 2.125Z" stroke="#007DAC" stroke-width="2" stroke-miterlimit="10"/>
<path d="M11.2322 11.2323L14.8749 14.875" stroke="#007DAC" stroke-width="2" stroke-miterlimit="10" stroke-linecap="round"/>
</svg>
